<svg aria-hidden="true" style="position: absolute; width: 0; height: 0; overflow: hidden;" version="1.1" xmlns="http://www.w3.org/2000/svg" xmlns:xlink="http://www.w3.org/1999/xlink">
<defs>
<symbol id="icon-linkedin" viewBox="0 0 32 32">
<path fill="#fff" style="fill: var(--color1, #fff)" d="M27.579 3.798h-22.445c-0.54 0-0.976 0.436-0.976 0.976v22.445c0 0.54 0.436 0.976 0.976 0.976h22.445c0.54 0 0.976-0.436 0.976-0.976v-22.445c0-0.54-0.436-0.976-0.976-0.976zM11.395 24.587h-3.62v-11.643h3.62v11.643zM9.587 11.351c-0.415 0-0.821-0.123-1.166-0.354s-0.614-0.558-0.773-0.942c-0.159-0.383-0.2-0.805-0.119-1.212s0.281-0.781 0.574-1.074c0.293-0.293 0.667-0.493 1.074-0.574s0.829-0.039 1.212 0.119 0.711 0.428 0.942 0.773c0.231 0.345 0.354 0.751 0.354 1.166-0.003 1.159-0.942 2.098-2.098 2.098zM24.948 24.587h-3.617v-5.663c0-1.351-0.024-3.086-1.882-3.086-1.882 0-2.171 1.47-2.171 2.989v5.761h-3.614v-11.643h3.47v1.592h0.049c0.482-0.915 1.662-1.882 3.425-1.882 3.666 0 4.34 2.412 4.34 5.547v6.386z"></path>
</symbol>
<symbol id="icon-facebook" viewBox="0 0 32 32">
<path fill="#fff" style="fill: var(--color1, #fff)" d="M27.589 3.798h-22.445c-0.54 0-0.976 0.436-0.976 0.976v22.445c0 0.54 0.436 0.976 0.976 0.976h22.445c0.54 0 0.976-0.436 0.976-0.976v-22.445c0-0.54-0.436-0.976-0.976-0.976zM24.771 10.918h-1.949c-1.528 0-1.824 0.726-1.824 1.793v2.351h3.647l-0.476 3.681h-3.172v9.451h-3.803v-9.448h-3.181v-3.684h3.181v-2.714c0-3.15 1.924-4.867 4.736-4.867 1.348 0 2.504 0.101 2.842 0.146v3.29h-0.003z"></path>
</symbol>
<symbol id="icon-twitter" viewBox="0 0 31 32">
<path fill="#fff" style="fill: var(--color1, #fff)" d="M28.301 8.138c-0.933 0.402-1.949 0.692-2.995 0.805 1.086-0.645 1.899-1.664 2.287-2.867-1.019 0.606-2.135 1.031-3.3 1.256-0.487-0.52-1.075-0.935-1.729-1.217s-1.359-0.428-2.071-0.426c-2.882 0-5.2 2.336-5.2 5.203 0 0.403 0.049 0.805 0.128 1.192-4.315-0.226-8.164-2.287-10.722-5.444-0.466 0.796-0.711 1.703-0.708 2.626 0 1.805 0.918 3.397 2.318 4.334-0.825-0.033-1.63-0.259-2.351-0.662v0.064c0 2.528 1.787 4.623 4.169 5.105-0.447 0.116-0.907 0.176-1.369 0.177-0.338 0-0.659-0.034-0.982-0.079 0.659 2.061 2.577 3.559 4.861 3.608-1.787 1.4-4.025 2.223-6.456 2.223-0.436 0-0.839-0.015-1.256-0.064 2.305 1.479 5.041 2.333 7.987 2.333 9.564 0 14.797-7.923 14.797-14.8 0-0.226 0-0.451-0.015-0.677 1.012-0.741 1.9-1.659 2.607-2.69z"></path>
</symbol>
<symbol id="icon-phone" viewBox="0 0 32 32">
<path fill="#fff" style="fill: var(--color1, #fff)" d="M21.333 1.335h-10.667c-2.213 0-4 1.787-4 4v21.333c0 2.213 1.787 4 4 4h10.667c2.213 0 4-1.787 4-4v-21.333c0-2.213-1.787-4-4-4zM18.667 28.001h-5.333v-1.333h5.333v1.333zM23 24.001h-14v-18.667h14v18.667z"></path>
</symbol>
<symbol id="icon-map" viewBox="0 0 31 32">
<path fill="#fff" style="fill: var(--color1, #fff)" d="M15.66 18.611c2.879 0 5.22-2.341 5.22-5.22s-2.341-5.22-5.22-5.22-5.22 2.341-5.22 5.22c0 2.879 2.341 5.22 5.22 5.22zM15.66 10.781c1.439 0 2.61 1.171 2.61 2.61s-1.171 2.61-2.61 2.61c-1.439 0-2.61-1.171-2.61-2.61s1.171-2.61 2.61-2.61z"></path>
<path fill="#fff" style="fill: var(--color1, #fff)" d="M14.903 28.808c0.221 0.158 0.485 0.243 0.757 0.243s0.536-0.085 0.757-0.243c0.397-0.281 9.721-7.013 9.683-15.417 0-5.756-4.683-10.44-10.44-10.44s-10.44 4.684-10.44 10.433c-0.038 8.41 9.286 15.143 9.683 15.423zM15.66 5.561c4.318 0 7.83 3.512 7.83 7.836 0.027 5.791-5.726 10.992-7.83 12.697-2.102-1.707-7.857-6.908-7.83-12.704 0-4.318 3.512-7.83 7.83-7.83z"></path>
</symbol>
<symbol id="icon-all-inclusive" viewBox="0 0 25 32">
<path fill="#02e4c0" style="fill: var(--color2, #02e4c0)" d="M19.185 10.264c-1.485 0-2.888 0.597-3.889 1.631l-7.251 6.653c-0.66 0.682-1.537 1.055-2.475 1.055-1.929 0-3.507-1.61-3.507-3.604s1.578-3.604 3.507-3.604c0.939 0 1.815 0.373 2.517 1.098l1.166 1.066 1.578-1.429-1.32-1.183c-0.517-0.536-1.131-0.961-1.807-1.25s-1.401-0.437-2.133-0.435c-3.074 0-5.57 2.58-5.57 5.736s2.496 5.736 5.57 5.736c1.485 0 2.888-0.597 3.889-1.631l7.251-6.653c0.66-0.682 1.537-1.056 2.475-1.056 1.929 0 3.507 1.61 3.507 3.604s-1.578 3.604-3.507 3.604c-0.928 0-1.815-0.373-2.517-1.098l-1.197-1.077-1.547 1.429 1.32 1.194c0.518 0.533 1.133 0.956 1.809 1.243s1.4 0.434 2.131 0.431c3.074 0 5.57-2.569 5.57-5.725 0-3.198-2.496-5.736-5.57-5.736z"></path>
</symbol>
<symbol id="icon-alien" viewBox="0 0 18 32">
<path fill="#02e4c0" style="fill: var(--color2, #02e4c0)" d="M7.493 15.144c0.789 1.312 0.673 2.856-0.271 3.48-0.943 0.608-2.351 0.040-3.147-1.272-0.789-1.312-0.665-2.872 0.278-3.48s2.351-0.040 3.14 1.272zM8.8 20.6c1.547 0 1.933-0.6 1.933-0.6s-0.387 1.6-1.933 1.6c-1.547 0-1.933-1.576-1.933-1.6 0 0 0.387 0.6 1.933 0.6zM13.247 13.872c0.943 0.608 1.067 2.168 0.278 3.48-0.797 1.312-2.204 1.88-3.147 1.272-0.943-0.624-1.059-2.168-0.271-3.48s2.196-1.88 3.14-1.272zM8.8 22.4c1.933 0 6.187-4.112 6.187-7.2s-2.776-5.6-6.187-5.6c-3.41 0-6.187 2.512-6.187 5.6s4.253 7.2 6.187 7.2zM8.8 8c4.253 0 7.733 3.232 7.733 7.2 0 3.264-4.393 8.8-7.733 8.8s-7.733-5.536-7.733-8.8c0-3.968 3.48-7.2 7.733-7.2z"></path>
</symbol>
<symbol id="icon-menu" viewBox="0 0 17 32">
<path fill="#02e4c0" style="fill: var(--color2, #02e4c0)" d="M5.237 16.83l1.947-1.948-4.26-4.253c-0.33-0.33-0.901-0.241-1.108 0.186-0.489 1.025-0.31 2.285 0.537 3.138l2.883 2.877zM9.903 15.585c1.053 0.489 2.532 0.145 3.627-0.95 1.314-1.314 1.569-3.2 0.557-4.212-1.005-1.005-2.89-0.757-4.212 0.557-1.094 1.094-1.438 2.574-0.95 3.627l-6.235 6.235c-0.129 0.129-0.201 0.303-0.201 0.485s0.072 0.357 0.201 0.485c0.129 0.129 0.303 0.201 0.485 0.201s0.357-0.072 0.485-0.201l4.26-4.246 4.253 4.253c0.064 0.064 0.139 0.114 0.223 0.149s0.172 0.052 0.263 0.052c0.090 0 0.179-0.018 0.263-0.052s0.159-0.085 0.223-0.149c0.064-0.064 0.114-0.139 0.149-0.223s0.052-0.172 0.052-0.263c0-0.090-0.018-0.179-0.052-0.263s-0.085-0.159-0.149-0.223l-4.253-4.253 1.012-1.012z"></path>
</symbol>
<symbol id="icon-mobile-menu" viewBox="0 0 40 32">
<path fill="#fff" style="fill: var(--color1, #fff)" d="M6.641 8h26.566v2.667h-26.566v-2.667zM13.283 14.667h19.925v2.667h-19.925v-2.667zM21.585 21.333h11.623v2.667h-11.623v-2.667z"></path>
</symbol>
<symbol id="icon-ibm" viewBox="0 0 79 32">
<path fill="#1f70c1" style="fill: var(--color3, #1f70c1)" d="M0.471 0.472v2.123h15.205v-2.123h-15.205zM17.83 0.472v2.123h21.669c0 0-2.213-2.123-5.145-2.123h-16.524zM43.75 0.472v2.123h13.109l-0.778-2.123h-12.331zM66.257 0.472l-0.778 2.123h12.99v-2.123h-12.212zM0.471 4.601v2.123h15.205v-2.123h-15.205zM17.83 4.604v2.12h24.183c0 0-0.282-1.634-0.775-2.12h-23.408zM43.75 4.604v2.12h14.546l-0.72-2.12h-13.826zM64.701 4.604l-0.72 2.12h14.488v-2.12h-13.768zM4.84 8.73v2.126h6.585v-2.126h-6.585zM22.2 8.73v2.126h6.585v-2.126h-6.585zM35.19 8.73v2.126h6.585c0 0 0.418-1.123 0.418-2.126l-7.003 0zM48.119 8.73v2.126h11.675l-0.778-2.126-10.897 0zM63.267 8.73l-0.781 2.126h11.733v-2.126h-10.952zM4.84 12.861v2.123h6.585v-2.123h-6.585zM22.2 12.861v2.123h16.82c0 0 1.407-1.089 1.855-2.123l-18.675 0zM48.119 12.861v2.123h6.585v-1.182l0.418 1.182h12.062l0.449-1.182v1.182h6.585v-2.123h-12.361l-0.656 1.798-0.659-1.798h-12.422zM4.84 16.989v2.123h6.585v-2.123h-6.585zM22.2 16.989v2.123h18.675c-0.448-1.030-1.855-2.123-1.855-2.123h-16.82zM48.119 16.989v2.123h6.585v-2.123h-6.585zM55.901 16.989l0.796 2.123h9.045l0.757-2.123h-10.598zM67.633 16.989v2.123h6.585v-2.123h-6.585zM4.84 21.118v2.123h6.585v-2.123h-6.585zM22.2 21.118v2.123h6.585v-2.123h-6.585zM35.19 21.118v2.123h7.003c0-1.002-0.418-2.123-0.418-2.123h-6.585zM48.119 21.118v2.123h6.585v-2.123h-6.585zM57.396 21.118l0.772 2.123h6.063l0.778-2.123h-7.613zM67.633 21.118v2.123h6.585v-2.123h-6.585zM0.59 25.247v2.126h15.206v-2.126l-15.206 0zM17.83 25.247v2.126h23.408c0.493-0.487 0.775-2.126 0.775-2.126l-24.183 0zM43.869 25.247v2.126h10.836v-2.126l-10.836 0zM58.894 25.247l0.793 2.126h3.085l0.745-2.126-4.623 0zM67.633 25.247v2.126h10.955v-2.126l-10.955 0zM0.59 29.378v2.123h15.206v-2.123h-15.206zM17.83 29.378v2.12h16.524c2.931 0 5.145-2.12 5.145-2.12l-21.669 0zM43.869 29.378v2.123h10.836v-2.123h-10.836zM60.398 29.378l0.763 2.117 0.131 0.003 0.775-2.12-1.669 0zM67.633 29.378v2.123h10.955v-2.123h-10.955z"></path>
</symbol>
<symbol id="icon-bnb" viewBox="0 0 30 32">
<path fill="#e0565b" style="fill: var(--color4, #e0565b)" d="M27.202 25.681c-0.218 1.631-1.309 3.042-2.835 3.67-0.748 0.313-1.558 0.408-2.368 0.313-0.779-0.094-1.558-0.345-2.368-0.815-1.122-0.628-2.244-1.6-3.552-3.042 2.057-2.54 3.303-4.861 3.77-6.931 0.218-0.972 0.249-1.851 0.156-2.666-0.125-0.784-0.405-1.506-0.842-2.133-0.966-1.411-2.586-2.227-4.393-2.227s-3.428 0.847-4.394 2.227c-0.436 0.627-0.716 1.349-0.841 2.133-0.124 0.816-0.093 1.725 0.156 2.666 0.467 2.069 1.745 4.422 3.77 6.962-1.278 1.443-2.431 2.415-3.553 3.043-0.81 0.471-1.589 0.721-2.368 0.815-0.803 0.090-1.616-0.017-2.368-0.313-1.527-0.627-2.617-2.039-2.836-3.67-0.093-0.784-0.031-1.568 0.281-2.446 0.093-0.314 0.249-0.627 0.405-1.003 0.218-0.502 0.468-1.035 0.717-1.568l0.031-0.062c2.15-4.673 4.456-9.44 6.855-14.082l0.093-0.189c0.249-0.47 0.498-0.972 0.748-1.442 0.249-0.502 0.53-0.972 0.872-1.38 0.654-0.753 1.527-1.16 2.493-1.16s1.838 0.408 2.493 1.161c0.343 0.408 0.623 0.878 0.873 1.38 0.249 0.471 0.498 0.972 0.748 1.442l0.094 0.189c2.368 4.673 4.674 9.44 6.824 14.113v0.031c0.249 0.502 0.467 1.067 0.717 1.568 0.156 0.377 0.312 0.69 0.405 1.003 0.249 0.815 0.343 1.6 0.218 2.415h-0zM14.769 24.207c-1.682-2.132-2.773-4.14-3.147-5.833-0.156-0.721-0.187-1.349-0.093-1.913 0.062-0.502 0.249-0.941 0.498-1.318 0.592-0.846 1.589-1.38 2.742-1.38s2.181 0.502 2.742 1.38c0.249 0.377 0.436 0.816 0.498 1.318 0.093 0.565 0.062 1.223-0.093 1.913-0.374 1.662-1.465 3.669-3.147 5.833zM28.822 22.576c-0.156-0.376-0.312-0.784-0.467-1.129-0.249-0.564-0.499-1.098-0.717-1.6l-0.031-0.031c-2.15-4.705-4.456-9.472-6.886-14.175l-0.093-0.189c-0.249-0.47-0.499-0.972-0.748-1.474-0.312-0.565-0.623-1.16-1.122-1.725-0.997-1.254-2.431-1.944-3.958-1.944-1.558 0-2.96 0.69-3.989 1.882-0.467 0.564-0.81 1.16-1.122 1.725-0.249 0.502-0.499 1.003-0.748 1.474l-0.093 0.188c-2.399 4.704-4.736 9.472-6.886 14.176l-0.031 0.063c-0.218 0.502-0.468 1.035-0.717 1.599-0.167 0.372-0.323 0.748-0.467 1.129-0.405 1.16-0.53 2.258-0.374 3.387 0.343 2.352 1.901 4.328 4.051 5.206 0.81 0.345 1.651 0.502 2.524 0.502 0.249 0 0.561-0.031 0.81-0.063 1.028-0.126 2.088-0.47 3.116-1.066 1.278-0.721 2.493-1.756 3.864-3.261 1.371 1.505 2.617 2.54 3.864 3.261 1.029 0.596 2.088 0.941 3.116 1.066 0.249 0.032 0.561 0.063 0.81 0.063 0.873 0 1.745-0.157 2.524-0.502 2.181-0.878 3.708-2.885 4.051-5.206 0.249-1.098 0.125-2.195-0.28-3.356l0 0z"></path>
</symbol>
<symbol id="icon-camp" viewBox="0 0 40 32">
<path fill="#b6deff" style="fill: var(--color5, #b6deff)" d="M19.872 0.001c-10.445 0-18.628 13.12-19.403 24.201 3.278 5.616 11.182 7.727 19.403 7.727s16.125-2.111 19.401-7.727c-0.774-11.081-8.957-24.201-19.401-24.201z"></path>
<path fill="#6c6" style="fill: var(--color6, #6c6)" d="M36.544 21.563c0 0-2.307-4.924-4.652-7.797-2.347-2.874-5.212-6.003-6.906-6.003s-6.427 8.275-8.599 8.275c-2.172 0-3.301-3.751-5.971-3.751s-6.916 9.046-6.916 9.046l-0.288 1.533c0 0 1.475 6.454 16.901 6.454s16.66-6.348 16.66-6.348l-0.229-1.408z"></path>
<path fill="#17ad49" style="fill: var(--color7, #17ad49)" d="M16.629 19.569c-2.396 0-3.624-2.334-4.29-3.774-0.599-1.298-0.702-3.347-2.401-3.404 0.167-0.065 0.328-0.104 0.478-0.104 2.67 0 3.799 3.751 5.971 3.751s6.905-8.275 8.599-8.275c0.319 0 0.679 0.111 1.069 0.309-0.288-0.038-0.658-0.011-0.943 0.271-0.547 0.541-5.516 11.226-8.482 11.226z"></path>
</symbol>
<symbol id="icon-android" viewBox="0 0 27 32">
<path fill="#fff" style="fill: var(--color1, #fff)" d="M8.388 0.514c-0.153 0.001-0.303 0.040-0.436 0.113-0.439 0.244-0.601 0.808-0.357 1.247l0.992 1.791c-2.39 1.479-3.974 4.004-3.974 6.887v0.536c-0.459-0.528-1.134-0.862-1.888-0.862-1.381 0-2.503 1.121-2.503 2.503v7.709c0 1.381 1.122 2.503 2.503 2.503 0.754 0 1.429-0.334 1.888-0.862v1.080c0 1.456 1.191 2.647 2.647 2.647h0.672v3.429c0 1.381 1.122 2.503 2.503 2.503s2.503-1.122 2.503-2.503v-3.429h1.162v3.429c0 1.381 1.122 2.503 2.503 2.503s2.503-1.122 2.503-2.503v-3.429h0.672c1.456 0 2.647-1.191 2.647-2.647v-1.080c0.459 0.528 1.134 0.862 1.888 0.862 1.381 0 2.503-1.122 2.503-2.503v-7.709c0-1.381-1.121-2.503-2.503-2.503-0.754 0-1.429 0.333-1.888 0.862v-0.471c0-0.027 0-0.049 0-0.065 0-2.882-1.587-5.406-3.977-6.884l0.995-1.794c0.243-0.439 0.082-1.004-0.357-1.247-0.134-0.073-0.284-0.112-0.436-0.113-0.325-0.003-0.643 0.168-0.811 0.471l-1.040 1.879c-1.017-0.375-2.124-0.581-3.279-0.581s-2.263 0.204-3.279 0.578l-1.040-1.876c-0.168-0.303-0.486-0.473-0.811-0.471z"></path>
<path fill="#a4c639" style="fill: var(--color8, #a4c639)" d="M2.725 10.879c-1.031 0-1.851 0.82-1.851 1.851v7.709c0 1.031 0.82 1.851 1.851 1.851s1.851-0.82 1.851-1.851v-7.709c0-1.031-0.82-1.851-1.851-1.851zM24.311 10.879c-1.031 0-1.851 0.82-1.851 1.851v7.709c0 1.031 0.82 1.851 1.851 1.851s1.851-0.82 1.851-1.851v-7.709c0-1.031-0.82-1.851-1.851-1.851z"></path>
<path fill="#a4c639" style="fill: var(--color8, #a4c639)" d="M10.434 19.676c-1.031 0-1.851 0.82-1.851 1.851v7.709c0 1.031 0.82 1.851 1.851 1.851s1.851-0.82 1.851-1.851v-7.709c0-1.031-0.82-1.851-1.851-1.851zM16.602 19.676c-1.031 0-1.851 0.82-1.851 1.851v7.709c0 1.031 0.82 1.851 1.851 1.851s1.851-0.82 1.851-1.851v-7.709c0-1.031-0.82-1.851-1.851-1.851z"></path>
<path fill="#a4c639" style="fill: var(--color8, #a4c639)" d="M8.393 1.166c-0.044 0.001-0.087 0.012-0.125 0.034-0.132 0.073-0.175 0.225-0.102 0.357l1.304 2.355c-2.508 1.305-4.203 3.785-4.206 6.632h16.507c-0.003-2.847-1.698-5.327-4.206-6.632l1.304-2.355c0.073-0.132 0.030-0.284-0.102-0.357-0.038-0.022-0.081-0.033-0.125-0.034-0.094-0.001-0.182 0.046-0.232 0.136l-1.321 2.381c-1.080-0.479-2.292-0.748-3.571-0.748s-2.491 0.269-3.571 0.748l-1.321-2.381c-0.023-0.042-0.056-0.077-0.097-0.101s-0.088-0.036-0.135-0.035h-0zM5.264 11.196v11.964c-0.001 0.262 0.051 0.522 0.151 0.764s0.247 0.463 0.432 0.648c0.185 0.185 0.406 0.332 0.648 0.432s0.502 0.151 0.764 0.151h12.516c0.262 0.001 0.522-0.051 0.764-0.151s0.463-0.247 0.648-0.432c0.185-0.185 0.332-0.406 0.432-0.648s0.151-0.502 0.151-0.764v-11.963l-16.507-0z"></path>
<path fill="#fff" style="fill: var(--color1, #fff)" d="M9.708 6.146c-0.377 0-0.689 0.312-0.689 0.689s0.312 0.689 0.689 0.689c0.377 0 0.689-0.312 0.689-0.689s-0.312-0.689-0.689-0.689zM17.327 6.146c-0.377 0-0.689 0.312-0.689 0.689s0.312 0.689 0.689 0.689c0.377 0 0.689-0.312 0.689-0.689s-0.312-0.689-0.689-0.689z"></path>
</symbol>
<symbol id="icon-aplary" viewBox="0 0 31 32">
<path fill="#13a049" style="fill: var(--color9, #13a049)" opacity="0.5" d="M15.705 4.912v8.901l7.723-4.46v-8.901l-7.723 4.46z"></path>
<path fill="#a2cc39" style="fill: var(--color10, #a2cc39)" opacity="0.5" d="M15.705 4.912l-7.723-4.46v8.919l7.723 4.46v-8.919z"></path>
<path fill="#000" style="fill: var(--color11, #000)" opacity="0.9" d="M23.428 0.453l-7.723 4.46-7.723-4.46-7.723 4.46 15.447 8.919 15.438-8.919-7.714-4.46z"></path>
<path fill="#000" style="fill: var(--color11, #000)" d="M15.705 13.832l-15.447-8.919v8.919l7.723 4.46v8.91l7.723 4.46 7.723-4.46v-8.91l7.714-4.46v-8.919l-15.438 8.919z"></path>
<path fill="#000" style="fill: var(--color11, #000)" d="M15.705 13.832v17.83l7.723-4.46v-8.91l7.714-4.46v-8.919l-15.438 8.919z"></path>
<path fill="#231f20" style="fill: var(--color12, #231f20)" opacity="0.05" d="M15.705 22.742v8.919l7.723-4.46-7.723-4.46z"></path>
<path fill="#231f20" style="fill: var(--color12, #231f20)" opacity="0.1" d="M15.705 31.68v-8.919l-7.723 4.46 7.723 4.46z"></path>
<path fill="#231f20" style="fill: var(--color12, #231f20)" opacity="0.05" d="M7.981 9.372l-7.723 4.46 7.723 4.46 7.723-4.46-7.723-4.46z"></path>
<path fill="#231f20" style="fill: var(--color12, #231f20)" opacity="0.05" d="M23.428 9.372l-7.723 4.46 7.723 4.46 7.714-4.46-7.714-4.46z"></path>
</symbol>
<symbol id="icon-app-store" viewBox="0 0 32 32">
<path fill="#000" style="fill: var(--color11, #000)" d="M7.155 0.12h17.689c3.807 0 6.893 3.086 6.893 6.893v17.689c0 3.807-3.086 6.893-6.893 6.893h-17.689c-3.807 0-6.893-3.086-6.893-6.893v-17.689c0-3.807 3.086-6.893 6.893-6.893z"></path>
<path fill="#fff" style="fill: var(--color1, #fff)" d="M10.349 22.965l0.003 0.001-1.076 1.864c-0.393 0.68-1.263 0.914-1.943 0.521s-0.914-1.263-0.521-1.943l0.869-1.505c0.136-0.195 0.471-0.532 1.142-0.469 0 0 1.578 0.171 1.693 0.992 0 0 0.016 0.27-0.166 0.54zM25.613 18.205h-3.356c-0.229-0.015-0.328-0.097-0.368-0.144l-0.002-0.004-3.592-6.222-0.005 0.003-0.215-0.309c-0.353-0.54-0.914 0.841-0.914 0.841-0.669 1.539 0.095 3.288 0.361 3.817l4.99 8.642c0.393 0.68 1.263 0.914 1.943 0.521s0.914-1.263 0.521-1.943l-1.248-2.161c-0.024-0.052-0.066-0.195 0.19-0.195h1.695c0.786 0 1.423-0.637 1.423-1.423s-0.637-1.423-1.423-1.423v0zM19.095 20.138c0 0 0.179 0.911-0.514 0.911h-12.406c-0.786 0-1.423-0.637-1.423-1.423s0.637-1.423 1.423-1.423h3.189c0.515-0.030 0.637-0.327 0.637-0.327l0.003 0.001 4.162-7.211c0.076-0.139 0.013-0.271 0.002-0.292l-1.375-2.381c-0.393-0.68-0.16-1.55 0.521-1.943s1.55-0.16 1.943 0.521l0.638 1.104 0.637-1.102c0.393-0.68 1.263-0.914 1.943-0.521s0.914 1.263 0.521 1.943l-5.793 10.034c-0.025 0.061-0.033 0.157 0.155 0.174h3.463l0.001 0.034c0 0 2.001 0.031 2.274 1.9z"></path>
</symbol>
</defs>
</svg>
